<svg width="330" height="83" viewBox="0 0 330 83" fill="none" xmlns="http://www.w3.org/2000/svg">
<rect x="1.5" y="34.5" width="187" height="47" rx="23.5" stroke="#D1F0E7" stroke-width="3"/>
<path d="M7.07599 15H9.0522V11.3139H11.1403C13.6598 11.3139 15.0128 9.80114 15.0128 7.70241C15.0128 5.61967 13.6758 4.09091 11.1669 4.09091H7.07599V15ZM9.0522 9.68928V5.74219H10.8633C12.3441 5.74219 12.9993 6.54119 12.9993 7.70241C12.9993 8.86364 12.3441 9.68928 10.8739 9.68928H9.0522ZM20.1146 15.1598C22.0215 15.1598 23.3319 14.2276 23.6728 12.8054L21.8724 12.603C21.6114 13.2955 20.9722 13.6577 20.1412 13.6577C18.8947 13.6577 18.0691 12.8374 18.0531 11.4364H23.7527V10.8452C23.7527 7.97408 22.0268 6.71165 20.0134 6.71165C17.6696 6.71165 16.1408 8.43217 16.1408 10.957C16.1408 13.5245 17.6483 15.1598 20.1146 15.1598ZM18.0585 10.1367C18.117 9.09268 18.8894 8.21378 20.04 8.21378C21.1479 8.21378 21.8937 9.02344 21.9043 10.1367H18.0585ZM25.3495 15H27.2778V10.19C27.2778 9.15128 28.0608 8.41619 29.1208 8.41619C29.4457 8.41619 29.8506 8.47479 30.0157 8.52805V6.75426C29.8399 6.7223 29.5363 6.70099 29.3232 6.70099C28.3857 6.70099 27.6027 7.23366 27.3044 8.18182H27.2192V6.81818H25.3495V15ZM31.2623 15H33.1905V12.2514L33.8937 11.5004L36.3972 15H38.7037L35.3478 10.3498L38.5172 6.81818H36.264L33.3237 10.1048H33.1905V4.09091H31.2623V15ZM46.2344 8.98082C45.9681 7.59588 44.8601 6.71165 42.9425 6.71165C40.9716 6.71165 39.6293 7.68111 39.6346 9.19389C39.6293 10.3871 40.3644 11.1754 41.9358 11.5004L43.3314 11.7933C44.0824 11.9585 44.434 12.2621 44.434 12.7255C44.434 13.2848 43.8268 13.7056 42.9106 13.7056C42.0263 13.7056 41.451 13.3221 41.2859 12.587L39.4056 12.7681C39.6453 14.2702 40.9077 15.1598 42.9159 15.1598C44.9613 15.1598 46.4049 14.0998 46.4102 12.5497C46.4049 11.3832 45.6538 10.6694 44.1091 10.3338L42.7135 10.0355C41.8825 9.84908 41.5523 9.56143 41.5576 9.08736C41.5523 8.53338 42.1648 8.14986 42.9692 8.14986C43.8587 8.14986 44.3275 8.63459 44.4766 9.17258L46.2344 8.98082ZM54.0063 15.1651C55.2901 15.1651 56.0571 14.5632 56.4087 13.8761H56.4726V15H58.3263V9.52415C58.3263 7.36151 56.5632 6.71165 55.0024 6.71165C53.2819 6.71165 51.9609 7.47869 51.5347 8.97017L53.3352 9.22585C53.5269 8.66655 54.0703 8.18714 55.0131 8.18714C55.908 8.18714 56.398 8.64524 56.398 9.44957V9.48153C56.398 10.0355 55.8174 10.0621 54.3739 10.2166C52.7865 10.3871 51.2684 10.8612 51.2684 12.7042C51.2684 14.3129 52.4456 15.1651 54.0063 15.1651ZM54.507 13.7482C53.7027 13.7482 53.1274 13.3807 53.1274 12.6722C53.1274 11.9318 53.772 11.6229 54.6349 11.5004C55.1409 11.4311 56.153 11.3033 56.4034 11.1009V12.065C56.4034 12.9759 55.6683 13.7482 54.507 13.7482ZM62.159 10.206C62.159 9.02344 62.8728 8.34162 63.8902 8.34162C64.8863 8.34162 65.4828 8.9968 65.4828 10.0888V15H67.4111V9.79048C67.4164 7.83026 66.2978 6.71165 64.6093 6.71165C63.3841 6.71165 62.5425 7.29759 62.1696 8.20845H62.0738V6.81818H60.2307V15H62.159V10.206ZM72.3731 15.1438C73.7793 15.1438 74.4132 14.3075 74.7168 13.7109H74.834V15H76.7303V4.09091H74.7967V8.17116H74.7168C74.4238 7.5799 73.8219 6.71165 72.3784 6.71165C70.4874 6.71165 69.0013 8.19247 69.0013 10.9197C69.0013 13.6151 70.4448 15.1438 72.3731 15.1438ZM72.9111 13.5618C71.638 13.5618 70.9668 12.4432 70.9668 10.9091C70.9668 9.38565 71.6273 8.29368 72.9111 8.29368C74.1522 8.29368 74.834 9.32173 74.834 10.9091C74.834 12.4964 74.1415 13.5618 72.9111 13.5618ZM82.4368 15H84.365V10.19C84.365 9.15128 85.1481 8.41619 86.2081 8.41619C86.533 8.41619 86.9378 8.47479 87.103 8.52805V6.75426C86.9272 6.7223 86.6236 6.70099 86.4105 6.70099C85.473 6.70099 84.69 7.23366 84.3917 8.18182H84.3065V6.81818H82.4368V15ZM91.6348 15.1598C93.5418 15.1598 94.8521 14.2276 95.193 12.8054L93.3926 12.603C93.1316 13.2955 92.4924 13.6577 91.6614 13.6577C90.415 13.6577 89.5893 12.8374 89.5734 11.4364H95.2729V10.8452C95.2729 7.97408 93.5471 6.71165 91.5336 6.71165C89.1898 6.71165 87.6611 8.43217 87.6611 10.957C87.6611 13.5245 89.1685 15.1598 91.6348 15.1598ZM89.5787 10.1367C89.6373 9.09268 90.4097 8.21378 91.5602 8.21378C92.6682 8.21378 93.4139 9.02344 93.4246 10.1367H89.5787ZM98.5144 15H100.528L102.062 9.47088H102.174L103.708 15H105.716L108.033 6.81818H106.062L104.645 12.5391H104.565L103.095 6.81818H101.151L99.6809 12.571H99.6063L98.1681 6.81818H96.2026L98.5144 15ZM111.699 15.1651C112.983 15.1651 113.75 14.5632 114.102 13.8761H114.166V15H116.019V9.52415C116.019 7.36151 114.256 6.71165 112.695 6.71165C110.975 6.71165 109.654 7.47869 109.228 8.97017L111.028 9.22585C111.22 8.66655 111.763 8.18714 112.706 8.18714C113.601 8.18714 114.091 8.64524 114.091 9.44957V9.48153C114.091 10.0355 113.51 10.0621 112.067 10.2166C110.48 10.3871 108.961 10.8612 108.961 12.7042C108.961 14.3129 110.139 15.1651 111.699 15.1651ZM112.2 13.7482C111.396 13.7482 110.82 13.3807 110.82 12.6722C110.82 11.9318 111.465 11.6229 112.328 11.5004C112.834 11.4311 113.846 11.3033 114.096 11.1009V12.065C114.096 12.9759 113.361 13.7482 112.2 13.7482ZM117.924 15H119.852V10.19C119.852 9.15128 120.635 8.41619 121.695 8.41619C122.02 8.41619 122.425 8.47479 122.59 8.52805V6.75426C122.414 6.7223 122.111 6.70099 121.898 6.70099C120.96 6.70099 120.177 7.23366 119.879 8.18182H119.793V6.81818H117.924V15ZM126.536 15.1438C127.942 15.1438 128.576 14.3075 128.88 13.7109H128.997V15H130.893V4.09091H128.96V8.17116H128.88C128.587 7.5799 127.985 6.71165 126.541 6.71165C124.65 6.71165 123.164 8.19247 123.164 10.9197C123.164 13.6151 124.608 15.1438 126.536 15.1438ZM127.074 13.5618C125.801 13.5618 125.13 12.4432 125.13 10.9091C125.13 9.38565 125.79 8.29368 127.074 8.29368C128.315 8.29368 128.997 9.32173 128.997 10.9091C128.997 12.4964 128.304 13.5618 127.074 13.5618ZM139.38 8.98082C139.114 7.59588 138.006 6.71165 136.088 6.71165C134.117 6.71165 132.775 7.68111 132.78 9.19389C132.775 10.3871 133.51 11.1754 135.081 11.5004L136.477 11.7933C137.228 11.9585 137.58 12.2621 137.58 12.7255C137.58 13.2848 136.972 13.7056 136.056 13.7056C135.172 13.7056 134.597 13.3221 134.431 12.587L132.551 12.7681C132.791 14.2702 134.053 15.1598 136.061 15.1598C138.107 15.1598 139.55 14.0998 139.556 12.5497C139.55 11.3832 138.799 10.6694 137.255 10.3338L135.859 10.0355C135.028 9.84908 134.698 9.56143 134.703 9.08736C134.698 8.53338 135.31 8.14986 136.115 8.14986C137.004 8.14986 137.473 8.63459 137.622 9.17258L139.38 8.98082Z" fill="#272833"/>
<path d="M93.2564 74.0994C94.8118 74.0994 95.9446 73.2081 95.9411 71.9794C95.9446 71.0703 95.3764 70.4169 94.3572 70.2713V70.2145C95.1456 70.044 95.6747 69.4581 95.6712 68.6413C95.6747 67.5334 94.7301 66.6278 93.2777 66.6278C91.8643 66.6278 90.7706 67.4695 90.7422 68.6875H92.0099C92.0312 68.0767 92.5994 67.6967 93.2706 67.6967C93.9489 67.6967 94.3999 68.1087 94.3963 68.7195C94.3999 69.3551 93.8743 69.7777 93.1214 69.7777H92.4787V70.7933H93.1214C94.0412 70.7933 94.5881 71.255 94.5845 71.9119C94.5881 72.5547 94.0305 72.995 93.2528 72.995C92.5213 72.995 91.9567 72.6151 91.9247 72.022H90.5895C90.625 73.2507 91.7223 74.0994 93.2564 74.0994ZM102.075 72.6364C102.079 73.4815 102.615 74.2024 103.613 74.2024C104.607 74.2024 105.154 73.4815 105.151 72.6364V72.2528C105.154 71.4006 104.622 70.6868 103.613 70.6868C102.629 70.6868 102.079 71.4077 102.075 72.2528V72.6364ZM98.3787 68.4744C98.3823 69.3196 98.9185 70.0334 99.9199 70.0334C100.911 70.0334 101.458 69.3267 101.454 68.4744V68.0909C101.458 67.2386 100.925 66.5249 99.9199 66.5249C98.9398 66.5249 98.3823 67.2386 98.3787 68.0909V68.4744ZM98.6983 74H99.5897L104.59 66.7273H103.698L98.6983 74ZM103.002 72.2528C103.006 71.8764 103.166 71.4964 103.613 71.4964C104.082 71.4964 104.22 71.8764 104.217 72.2528V72.6364C104.22 73.0128 104.068 73.3857 103.613 73.3857C103.159 73.3857 103.006 73.0092 103.002 72.6364V72.2528ZM99.3127 68.0909C99.3162 67.718 99.4689 67.3345 99.9199 67.3345C100.389 67.3345 100.524 67.7145 100.52 68.0909V68.4744C100.524 68.8509 100.374 69.2237 99.9199 69.2237C99.4654 69.2237 99.3162 68.8509 99.3127 68.4744V68.0909Z" fill="#00A876"/>
<path d="M158.646 74H163.632V72.8991H160.464V72.8494L161.718 71.5746C163.131 70.218 163.522 69.5575 163.522 68.7372C163.522 67.5192 162.531 66.6278 161.068 66.6278C159.626 66.6278 158.604 67.5227 158.604 68.9041H159.857C159.857 68.1619 160.326 67.6967 161.05 67.6967C161.743 67.6967 162.258 68.1193 162.258 68.8047C162.258 69.4119 161.888 69.8452 161.171 70.5732L158.646 73.0483V74ZM169.773 72.6364C169.776 73.4815 170.313 74.2024 171.31 74.2024C172.305 74.2024 172.852 73.4815 172.848 72.6364V72.2528C172.852 71.4006 172.319 70.6868 171.31 70.6868C170.327 70.6868 169.776 71.4077 169.773 72.2528V72.6364ZM166.076 68.4744C166.08 69.3196 166.616 70.0334 167.617 70.0334C168.608 70.0334 169.155 69.3267 169.151 68.4744V68.0909C169.155 67.2386 168.622 66.5249 167.617 66.5249C166.637 66.5249 166.08 67.2386 166.076 68.0909V68.4744ZM166.396 74H167.287L172.287 66.7273H171.396L166.396 74ZM170.7 72.2528C170.703 71.8764 170.863 71.4964 171.31 71.4964C171.779 71.4964 171.918 71.8764 171.914 72.2528V72.6364C171.918 73.0128 171.765 73.3857 171.31 73.3857C170.856 73.3857 170.703 73.0092 170.7 72.6364V72.2528ZM167.01 68.0909C167.014 67.718 167.166 67.3345 167.617 67.3345C168.086 67.3345 168.221 67.7145 168.217 68.0909V68.4744C168.221 68.8509 168.072 69.2237 167.617 69.2237C167.163 69.2237 167.014 68.8509 167.01 68.4744V68.0909Z" fill="#00A876"/>
<path d="M158.646 74H163.632V72.8991H160.464V72.8494L161.718 71.5746C163.131 70.218 163.522 69.5575 163.522 68.7372C163.522 67.5192 162.531 66.6278 161.068 66.6278C159.626 66.6278 158.604 67.5227 158.604 68.9041H159.857C159.857 68.1619 160.326 67.6967 161.05 67.6967C161.743 67.6967 162.258 68.1193 162.258 68.8047C162.258 69.4119 161.888 69.8452 161.171 70.5732L158.646 73.0483V74ZM169.773 72.6364C169.776 73.4815 170.313 74.2024 171.31 74.2024C172.305 74.2024 172.852 73.4815 172.848 72.6364V72.2528C172.852 71.4006 172.319 70.6868 171.31 70.6868C170.327 70.6868 169.776 71.4077 169.773 72.2528V72.6364ZM166.076 68.4744C166.08 69.3196 166.616 70.0334 167.617 70.0334C168.608 70.0334 169.155 69.3267 169.151 68.4744V68.0909C169.155 67.2386 168.622 66.5249 167.617 66.5249C166.637 66.5249 166.08 67.2386 166.076 68.0909V68.4744ZM166.396 74H167.287L172.287 66.7273H171.396L166.396 74ZM170.7 72.2528C170.703 71.8764 170.863 71.4964 171.31 71.4964C171.779 71.4964 171.918 71.8764 171.914 72.2528V72.6364C171.918 73.0128 171.765 73.3857 171.31 73.3857C170.856 73.3857 170.703 73.0092 170.7 72.6364V72.2528ZM167.01 68.0909C167.014 67.718 167.166 67.3345 167.617 67.3345C168.086 67.3345 168.221 67.7145 168.217 68.0909V68.4744C168.221 68.8509 168.072 69.2237 167.617 69.2237C167.163 69.2237 167.014 68.8509 167.01 68.4744V68.0909Z" fill="#00A876"/>
<rect width="96" height="24" transform="translate(45 22)" fill="white"/>
<path d="M53.9425 33.1811C53.7188 31.5653 52.4759 30.6278 50.8636 30.6278C48.9638 30.6278 47.5327 32.0128 47.5327 34.3636C47.5327 36.7109 48.946 38.0994 50.8636 38.0994C52.593 38.0994 53.7401 36.9808 53.9425 35.5923L52.6143 35.5852C52.4474 36.4375 51.7514 36.9169 50.8814 36.9169C49.7024 36.9169 48.8572 36.0327 48.8572 34.3636C48.8572 32.723 49.6953 31.8104 50.8849 31.8104C51.7692 31.8104 52.4616 32.3111 52.6143 33.1811H53.9425ZM56.6388 38.1101C57.4946 38.1101 58.0059 37.7088 58.2403 37.2507H58.2829V38H59.5187V34.3494C59.5187 32.9077 58.3433 32.4744 57.3028 32.4744C56.1558 32.4744 55.2751 32.9858 54.991 33.9801L56.1913 34.1506C56.3192 33.7777 56.6814 33.4581 57.3099 33.4581C57.9065 33.4581 58.2332 33.7635 58.2332 34.2997V34.321C58.2332 34.6903 57.8461 34.7081 56.8838 34.8111C55.8255 34.9247 54.8135 35.2408 54.8135 36.4695C54.8135 37.5419 55.5983 38.1101 56.6388 38.1101ZM56.9726 37.1655C56.4363 37.1655 56.0528 36.9205 56.0528 36.4482C56.0528 35.9545 56.4825 35.7486 57.0578 35.6669C57.3951 35.6207 58.0699 35.5355 58.2368 35.4006V36.0433C58.2368 36.6506 57.7467 37.1655 56.9726 37.1655ZM65.0994 33.9872C64.9219 33.0639 64.1832 32.4744 62.9048 32.4744C61.5909 32.4744 60.696 33.1207 60.6996 34.1293C60.696 34.9247 61.1861 35.4503 62.2337 35.6669L63.1641 35.8622C63.6648 35.9723 63.8991 36.1747 63.8991 36.4837C63.8991 36.8565 63.4943 37.1371 62.8835 37.1371C62.294 37.1371 61.9105 36.8814 61.8004 36.3913L60.5469 36.5121C60.7067 37.5135 61.5483 38.1065 62.8871 38.1065C64.2507 38.1065 65.2131 37.3999 65.2166 36.3665C65.2131 35.5888 64.7123 35.1129 63.6825 34.8892L62.7521 34.6903C62.1981 34.5661 61.978 34.3743 61.9815 34.0582C61.978 33.6889 62.3864 33.4332 62.9226 33.4332C63.5156 33.4332 63.8281 33.7564 63.9275 34.1151L65.0994 33.9872ZM67.5391 34.804C67.5391 34.0156 68.0292 33.5611 68.7181 33.5611C69.3928 33.5611 69.7906 33.9908 69.7906 34.7259V38H71.0761V34.527C71.0761 33.2095 70.3303 32.4744 69.1975 32.4744C68.3594 32.4744 67.8268 32.8544 67.5746 33.4723H67.5107V30.7273H66.2536V38H67.5391V34.804ZM72.4203 38H73.6845V37.1406H73.759C73.9614 37.5384 74.384 38.0959 75.3215 38.0959C76.607 38.0959 77.5694 37.0767 77.5694 35.2798C77.5694 33.4616 76.5786 32.4744 75.318 32.4744C74.3556 32.4744 73.9543 33.0533 73.759 33.4474H73.7058V30.7273H72.4203V38ZM73.6809 35.2727C73.6809 34.2145 74.1355 33.5291 74.9629 33.5291C75.8187 33.5291 76.259 34.2571 76.259 35.2727C76.259 36.2955 75.8116 37.0412 74.9629 37.0412C74.1426 37.0412 73.6809 36.331 73.6809 35.2727ZM80.2089 38.1101C81.0647 38.1101 81.5761 37.7088 81.8104 37.2507H81.853V38H83.0888V34.3494C83.0888 32.9077 81.9134 32.4744 80.8729 32.4744C79.7259 32.4744 78.8452 32.9858 78.5611 33.9801L79.7614 34.1506C79.8893 33.7777 80.2515 33.4581 80.88 33.4581C81.4766 33.4581 81.8033 33.7635 81.8033 34.2997V34.321C81.8033 34.6903 81.4163 34.7081 80.4539 34.8111C79.3957 34.9247 78.3836 35.2408 78.3836 36.4695C78.3836 37.5419 79.1684 38.1101 80.2089 38.1101ZM80.5427 37.1655C80.0064 37.1655 79.6229 36.9205 79.6229 36.4482C79.6229 35.9545 80.0526 35.7486 80.6279 35.6669C80.9653 35.6207 81.64 35.5355 81.8069 35.4006V36.0433C81.8069 36.6506 81.3168 37.1655 80.5427 37.1655ZM86.7377 38.1065C88.1084 38.1065 88.982 37.2933 89.0744 36.1357H87.8457C87.7356 36.7216 87.313 37.0589 86.7484 37.0589C85.9458 37.0589 85.4273 36.3878 85.4273 35.2727C85.4273 34.1719 85.9565 33.5114 86.7484 33.5114C87.3663 33.5114 87.7462 33.9091 87.8457 34.4347H89.0744C88.9856 33.2521 88.0623 32.4744 86.7306 32.4744C85.1326 32.4744 84.1241 33.6286 84.1241 35.294C84.1241 36.9453 85.1077 38.1065 86.7377 38.1065ZM90.1069 38H91.3924V36.1676L91.8612 35.6669L93.5302 38H95.0679L92.8307 34.8999L94.9436 32.5455H93.4415L91.4812 34.7365H91.3924V30.7273H90.1069V38ZM98.2916 38H99.5558V37.1406H99.6304C99.8328 37.5384 100.255 38.0959 101.193 38.0959C102.478 38.0959 103.441 37.0767 103.441 35.2798C103.441 33.4616 102.45 32.4744 101.189 32.4744C100.227 32.4744 99.8257 33.0533 99.6304 33.4474H99.5771V30.7273H98.2916V38ZM99.5522 35.2727C99.5522 34.2145 100.007 33.5291 100.834 33.5291C101.69 33.5291 102.13 34.2571 102.13 35.2727C102.13 36.2955 101.683 37.0412 100.834 37.0412C100.014 37.0412 99.5522 36.331 99.5522 35.2727ZM106.89 38.1065C108.488 38.1065 109.503 36.9808 109.503 35.294C109.503 33.6037 108.488 32.4744 106.89 32.4744C105.292 32.4744 104.276 33.6037 104.276 35.294C104.276 36.9808 105.292 38.1065 106.89 38.1065ZM106.897 37.0767C106.013 37.0767 105.579 36.2884 105.579 35.2905C105.579 34.2926 106.013 33.4936 106.897 33.4936C107.767 33.4936 108.2 34.2926 108.2 35.2905C108.2 36.2884 107.767 37.0767 106.897 37.0767ZM111.857 34.804C111.857 34.0156 112.333 33.5611 113.011 33.5611C113.675 33.5611 114.073 33.9979 114.073 34.7259V38H115.359V34.527C115.362 33.2202 114.616 32.4744 113.491 32.4744C112.674 32.4744 112.113 32.8651 111.864 33.4723H111.8V32.5455H110.572V38H111.857V34.804ZM120.119 35.706C120.119 36.5369 119.526 36.9489 118.958 36.9489C118.34 36.9489 117.928 36.5121 117.928 35.8196V32.5455H116.642V36.0185C116.642 37.3288 117.388 38.071 118.461 38.071C119.277 38.071 119.853 37.6413 120.101 37.0305H120.158V38H121.404V32.5455H120.119V35.706ZM127.014 33.9872C126.837 33.0639 126.098 32.4744 124.82 32.4744C123.506 32.4744 122.611 33.1207 122.615 34.1293C122.611 34.9247 123.101 35.4503 124.149 35.6669L125.079 35.8622C125.58 35.9723 125.814 36.1747 125.814 36.4837C125.814 36.8565 125.409 37.1371 124.798 37.1371C124.209 37.1371 123.825 36.8814 123.715 36.3913L122.462 36.5121C122.622 37.5135 123.463 38.1065 124.802 38.1065C126.166 38.1065 127.128 37.3999 127.132 36.3665C127.128 35.5888 126.627 35.1129 125.597 34.8892L124.667 34.6903C124.113 34.5661 123.893 34.3743 123.896 34.0582C123.893 33.6889 124.301 33.4332 124.838 33.4332C125.431 33.4332 125.743 33.7564 125.843 34.1151L127.014 33.9872ZM130.583 38.1065C131.855 38.1065 132.728 37.4851 132.956 36.5369L131.755 36.402C131.581 36.8636 131.155 37.1051 130.601 37.1051C129.77 37.1051 129.22 36.5582 129.209 35.6243H133.009V35.2301C133.009 33.3161 131.858 32.4744 130.516 32.4744C128.953 32.4744 127.934 33.6214 127.934 35.3047C127.934 37.0163 128.939 38.1065 130.583 38.1065ZM129.213 34.7578C129.252 34.0618 129.767 33.4759 130.534 33.4759C131.272 33.4759 131.769 34.0156 131.777 34.7578H129.213ZM138.384 33.9872C138.207 33.0639 137.468 32.4744 136.19 32.4744C134.876 32.4744 133.981 33.1207 133.985 34.1293C133.981 34.9247 134.471 35.4503 135.519 35.6669L136.449 35.8622C136.95 35.9723 137.184 36.1747 137.184 36.4837C137.184 36.8565 136.779 37.1371 136.168 37.1371C135.579 37.1371 135.195 36.8814 135.085 36.3913L133.832 36.5121C133.992 37.5135 134.833 38.1065 136.172 38.1065C137.536 38.1065 138.498 37.3999 138.502 36.3665C138.498 35.5888 137.997 35.1129 136.967 34.8892L136.037 34.6903C135.483 34.5661 135.263 34.3743 135.267 34.0582C135.263 33.6889 135.671 33.4332 136.208 33.4332C136.801 33.4332 137.113 33.7564 137.213 34.1151L138.384 33.9872Z" fill="#00A876"/>
<path fill-rule="evenodd" clip-rule="evenodd" d="M238.5 49.678V58.728C241.34 58.888 243.5 59.708 243.5 60.698C243.5 61.798 240.81 62.698 237.5 62.698C234.19 62.698 231.5 61.798 231.5 60.698C231.5 59.958 232.71 59.318 234.5 58.968V59.698C234.5 60.248 234.95 60.698 235.5 60.698C236.05 60.698 236.5 60.248 236.5 59.698V44.298C236.5 43.558 237.28 43.078 237.95 43.408L242.71 45.738C243.45 46.098 243.45 47.158 242.72 47.528L238.5 49.678ZM245.5 60.198C245.5 59.3696 246.172 58.698 247 58.698C247.828 58.698 248.5 59.3696 248.5 60.198C248.5 61.0265 247.828 61.698 247 61.698C246.172 61.698 245.5 61.0265 245.5 60.198Z" fill="black" fill-opacity="0.54"/>
<path fill-rule="evenodd" clip-rule="evenodd" d="M167 47.5H173C175.21 47.5 177 49.29 177 51.5V59.5C177 60.05 176.55 60.5 176 60.5C175.45 60.5 175 60.05 175 59.5V57.5H157V59.5C157 60.05 156.55 60.5 156 60.5C155.45 60.5 155 60.05 155 59.5V46.5C155 45.95 155.45 45.5 156 45.5C156.55 45.5 157 45.95 157 46.5V54.5H165V49.5C165 48.4 165.9 47.5 167 47.5ZM164 50.5C164 52.16 162.66 53.5 161 53.5C159.34 53.5 158 52.16 158 50.5C158 48.84 159.34 47.5 161 47.5C162.66 47.5 164 48.84 164 50.5Z" fill="black" fill-opacity="0.54"/>
<path d="M307.57 55.86L308.29 55.14C308.68 54.75 308.68 54.12 308.29 53.73L308.27 53.71C308.083 53.5227 307.829 53.4175 307.565 53.4175C307.3 53.4175 307.047 53.5227 306.86 53.71L304 56.57L295.43 48L298.29 45.14C298.68 44.75 298.68 44.12 298.29 43.73L298.27 43.71C298.083 43.5227 297.829 43.4175 297.565 43.4175C297.3 43.4175 297.047 43.5227 296.86 43.71L296.14 44.43L295.42 43.71C295.03 43.32 294.39 43.32 294 43.71L292.57 45.14L291.85 44.42C291.46 44.03 290.81 44.03 290.42 44.42C290.03 44.81 290.03 45.46 290.42 45.85L291.14 46.57L289.71 48C289.32 48.39 289.32 49.02 289.71 49.41L290.43 50.13L289.71 50.86C289.32 51.25 289.32 51.88 289.71 52.27L289.73 52.29C290.12 52.68 290.75 52.68 291.14 52.29L294 49.43L302.57 58L299.71 60.86C299.32 61.25 299.32 61.88 299.71 62.27L299.73 62.29C300.12 62.68 300.75 62.68 301.14 62.29L301.86 61.57L302.58 62.29C302.97 62.68 303.6 62.68 303.99 62.29L305.42 60.86L306.14 61.58C306.53 61.97 307.18 61.97 307.57 61.58C307.96 61.19 307.96 60.54 307.57 60.15L306.85 59.43L308.29 58C308.68 57.61 308.68 56.98 308.29 56.59L307.57 55.86Z" fill="black" fill-opacity="0.54"/>
<path fill-rule="evenodd" clip-rule="evenodd" d="M103.58 46.58L108.41 51.41C108.79 51.79 109 52.3 109 52.83V55C109 56.1 108.1 57 107 57C107 58.66 105.66 60 104 60C102.34 60 101 58.66 101 57H95C95 58.66 93.66 60 92 60C90.34 60 89 58.66 89 57C87.9 57 87 56.1 87 55V48C87 46.89 87.9 46 89 46H102.17C102.7 46 103.21 46.21 103.58 46.58ZM89 49V51C89 51.55 89.45 52 90 52H93V48H90C89.45 48 89 48.45 89 49ZM92 58.25C91.31 58.25 90.75 57.69 90.75 57C90.75 56.31 91.31 55.75 92 55.75C92.69 55.75 93.25 56.31 93.25 57C93.25 57.69 92.69 58.25 92 58.25ZM95 52H99V48H95V52ZM104 58.25C103.31 58.25 102.75 57.69 102.75 57C102.75 56.31 103.31 55.75 104 55.75C104.69 55.75 105.25 56.31 105.25 57C105.25 57.69 104.69 58.25 104 58.25ZM101 48V52H106L102 48H101Z" fill="black" fill-opacity="0.54"/>
<path d="M237.83 8.45455H238.852C238.805 7.13778 237.591 6.15341 235.903 6.15341C234.233 6.15341 232.92 7.125 232.92 8.59091C232.92 9.76705 233.773 10.4659 235.136 10.858L236.21 11.1648C237.131 11.4205 237.949 11.7443 237.949 12.6136C237.949 13.5682 237.028 14.1989 235.818 14.1989C234.778 14.1989 233.858 13.7386 233.773 12.75H232.682C232.784 14.1818 233.943 15.1534 235.818 15.1534C237.83 15.1534 238.972 14.0455 238.972 12.6307C238.972 10.9943 237.42 10.4659 236.517 10.2273L235.631 9.98864C234.983 9.81818 233.943 9.47727 233.943 8.53977C233.943 7.70455 234.71 7.09091 235.869 7.09091C236.926 7.09091 237.727 7.59375 237.83 8.45455ZM243.11 15.1364C244.439 15.1364 245.411 14.4716 245.717 13.483L244.746 13.2102C244.49 13.892 243.898 14.233 243.11 14.233C241.929 14.233 241.115 13.4702 241.068 12.0682H245.82V11.642C245.82 9.20455 244.371 8.36932 243.007 8.36932C241.235 8.36932 240.058 9.76705 240.058 11.7784C240.058 13.7898 241.217 15.1364 243.11 15.1364ZM241.068 11.1989C241.137 10.1804 241.857 9.27273 243.007 9.27273C244.098 9.27273 244.797 10.0909 244.797 11.1989H241.068ZM249.886 15.1364C251.216 15.1364 252.187 14.4716 252.494 13.483L251.523 13.2102C251.267 13.892 250.675 14.233 249.886 14.233C248.706 14.233 247.892 13.4702 247.845 12.0682H252.597V11.642C252.597 9.20455 251.148 8.36932 249.784 8.36932C248.011 8.36932 246.835 9.76705 246.835 11.7784C246.835 13.7898 247.994 15.1364 249.886 15.1364ZM247.845 11.1989C247.913 10.1804 248.633 9.27273 249.784 9.27273C250.875 9.27273 251.574 10.0909 251.574 11.1989H247.845ZM259.012 15.1534C260.154 15.1534 260.751 14.5398 260.955 14.1136H261.007V15H262.012V10.6875C262.012 8.60795 260.427 8.36932 259.592 8.36932C258.603 8.36932 257.478 8.71023 256.967 9.90341L257.921 10.2443C258.143 9.76705 258.667 9.25568 259.626 9.25568C260.551 9.25568 261.007 9.74574 261.007 10.5852V10.6193C261.007 11.1051 260.512 11.0625 259.319 11.2159C258.105 11.3736 256.779 11.642 256.779 13.142C256.779 14.4205 257.768 15.1534 259.012 15.1534ZM259.166 14.25C258.365 14.25 257.785 13.892 257.785 13.1932C257.785 12.4261 258.484 12.1875 259.268 12.0852C259.694 12.0341 260.836 11.9148 261.007 11.7102V12.6307C261.007 13.4489 260.359 14.25 259.166 14.25ZM264.646 6.27273H263.64V15H264.646V6.27273ZM267.286 6.27273H266.28V15H267.286V6.27273ZM274.747 15.1364C276.196 15.1364 277.15 14.25 277.321 13.0909H276.315C276.128 13.8068 275.531 14.233 274.747 14.233C273.554 14.233 272.787 13.2443 272.787 11.7273C272.787 10.2443 273.571 9.27273 274.747 9.27273C275.633 9.27273 276.162 9.81818 276.315 10.4148H277.321C277.15 9.1875 276.111 8.36932 274.73 8.36932C272.957 8.36932 271.781 9.76705 271.781 11.7614C271.781 13.7216 272.906 15.1364 274.747 15.1364ZM280.509 15.1534C281.651 15.1534 282.248 14.5398 282.453 14.1136H282.504V15H283.509V10.6875C283.509 8.60795 281.924 8.36932 281.089 8.36932C280.1 8.36932 278.975 8.71023 278.464 9.90341L279.419 10.2443C279.64 9.76705 280.164 9.25568 281.123 9.25568C282.048 9.25568 282.504 9.74574 282.504 10.5852V10.6193C282.504 11.1051 282.009 11.0625 280.816 11.2159C279.602 11.3736 278.276 11.642 278.276 13.142C278.276 14.4205 279.265 15.1534 280.509 15.1534ZM280.663 14.25C279.862 14.25 279.282 13.892 279.282 13.1932C279.282 12.4261 279.981 12.1875 280.765 12.0852C281.191 12.0341 282.333 11.9148 282.504 11.7102V12.6307C282.504 13.4489 281.856 14.25 280.663 14.25ZM287.984 8.45455H286.586V6.88636H285.581V8.45455H284.592V9.30682H285.581V13.3977C285.581 14.5398 286.501 15.0852 287.353 15.0852C287.728 15.0852 287.967 15.017 288.103 14.9659L287.899 14.0625C287.814 14.0795 287.677 14.1136 287.456 14.1136C287.012 14.1136 286.586 13.9773 286.586 13.125V9.30682H287.984V8.45455ZM291.963 15.1364C293.293 15.1364 294.264 14.4716 294.571 13.483L293.6 13.2102C293.344 13.892 292.752 14.233 291.963 14.233C290.783 14.233 289.969 13.4702 289.922 12.0682H294.673V11.642C294.673 9.20455 293.225 8.36932 291.861 8.36932C290.088 8.36932 288.912 9.76705 288.912 11.7784C288.912 13.7898 290.071 15.1364 291.963 15.1364ZM289.922 11.1989C289.99 10.1804 290.71 9.27273 291.861 9.27273C292.952 9.27273 293.651 10.0909 293.651 11.1989H289.922ZM298.638 17.5909C300.206 17.5909 301.467 16.875 301.467 15.1875V8.45455H300.496V9.49432H300.393C300.172 9.15341 299.763 8.36932 298.484 8.36932C296.831 8.36932 295.689 9.68182 295.689 11.6932C295.689 13.7386 296.882 14.8977 298.467 14.8977C299.746 14.8977 300.155 14.1477 300.376 13.7898H300.462V15.1193C300.462 16.2102 299.695 16.7045 298.638 16.7045C297.449 16.7045 297.031 16.0781 296.763 15.7159L295.962 16.2784C296.371 16.9645 297.176 17.5909 298.638 17.5909ZM298.604 13.9943C297.342 13.9943 296.695 13.0398 296.695 11.6761C296.695 10.3466 297.325 9.27273 298.604 9.27273C299.831 9.27273 300.479 10.2614 300.479 11.6761C300.479 13.125 299.814 13.9943 298.604 13.9943ZM305.76 15.1364C307.532 15.1364 308.726 13.7898 308.726 11.7614C308.726 9.71591 307.532 8.36932 305.76 8.36932C303.987 8.36932 302.794 9.71591 302.794 11.7614C302.794 13.7898 303.987 15.1364 305.76 15.1364ZM305.76 14.233C304.413 14.233 303.799 13.0739 303.799 11.7614C303.799 10.4489 304.413 9.27273 305.76 9.27273C307.106 9.27273 307.72 10.4489 307.72 11.7614C307.72 13.0739 307.106 14.233 305.76 14.233ZM310.053 15H311.059V10.858C311.059 9.97159 311.758 9.32386 312.712 9.32386C312.981 9.32386 313.258 9.375 313.326 9.39205V8.36932C313.211 8.3608 312.947 8.35227 312.797 8.35227C312.013 8.35227 311.332 8.79545 311.093 9.44318H311.025V8.45455H310.053V15ZM314.31 15H315.316V8.45455H314.31V15ZM314.822 7.36364C315.214 7.36364 315.538 7.05682 315.538 6.68182C315.538 6.30682 315.214 6 314.822 6C314.43 6 314.106 6.30682 314.106 6.68182C314.106 7.05682 314.43 7.36364 314.822 7.36364ZM319.695 15.1364C321.024 15.1364 321.996 14.4716 322.303 13.483L321.331 13.2102C321.075 13.892 320.483 14.233 319.695 14.233C318.514 14.233 317.7 13.4702 317.654 12.0682H322.405V11.642C322.405 9.20455 320.956 8.36932 319.592 8.36932C317.82 8.36932 316.644 9.76705 316.644 11.7784C316.644 13.7898 317.803 15.1364 319.695 15.1364ZM317.654 11.1989C317.722 10.1804 318.442 9.27273 319.592 9.27273C320.683 9.27273 321.382 10.0909 321.382 11.1989H317.654ZM328.364 9.92045C328.048 8.99148 327.341 8.36932 326.045 8.36932C324.665 8.36932 323.642 9.15341 323.642 10.2614C323.642 11.1648 324.179 11.7699 325.381 12.0511L326.472 12.3068C327.132 12.4602 327.443 12.7756 327.443 13.2273C327.443 13.7898 326.847 14.25 325.909 14.25C325.087 14.25 324.571 13.8963 324.392 13.1932L323.437 13.4318C323.672 14.544 324.588 15.1364 325.926 15.1364C327.447 15.1364 328.483 14.3054 328.483 13.1761C328.483 12.2642 327.912 11.6889 326.744 11.4034L325.773 11.1648C324.997 10.973 324.648 10.7131 324.648 10.2102C324.648 9.64773 325.244 9.23864 326.045 9.23864C326.923 9.23864 327.285 9.72443 327.46 10.1761L328.364 9.92045Z" fill="black"/>
<path fill-rule="evenodd" clip-rule="evenodd" d="M37 45H23C21.9 45 21 45.9 21 47V55C21 57.21 22.79 59 25 59H31C33.21 59 35 57.21 35 55V52H37C38.1 52 39 51.1 39 50V47C39 45.9 38.1 45 37 45ZM37 50H35V47H37V50ZM36 63H20C19.45 63 19 62.55 19 62C19 61.45 19.45 61 20 61H36C36.55 61 37 61.45 37 62C37 62.55 36.55 63 36 63Z" fill="black" fill-opacity="0.54"/>
<path d="M24.1747 74.0994C25.7124 74.0994 26.7848 73.0554 26.7848 71.6101C26.7848 70.2109 25.8118 69.2024 24.4908 69.2024C23.9013 69.2024 23.3793 69.4368 23.1094 69.7564H23.0668L23.2763 67.8281H26.4048V66.7273H22.1861L21.8061 70.4773L22.9957 70.6726C23.2408 70.4027 23.7024 70.2216 24.1392 70.2251C24.9382 70.2287 25.5135 70.8182 25.5099 71.642C25.5135 72.4553 24.9524 73.0341 24.1747 73.0341C23.5178 73.0341 22.9886 72.6186 22.9425 72.022H21.6641C21.6996 73.2294 22.7543 74.0994 24.1747 74.0994ZM32.8899 72.6364C32.8935 73.4815 33.4297 74.2024 34.4276 74.2024C35.4219 74.2024 35.9688 73.4815 35.9652 72.6364V72.2528C35.9688 71.4006 35.4361 70.6868 34.4276 70.6868C33.4439 70.6868 32.8935 71.4077 32.8899 72.2528V72.6364ZM29.1932 68.4744C29.1967 69.3196 29.733 70.0334 30.7344 70.0334C31.7252 70.0334 32.272 69.3267 32.2685 68.4744V68.0909C32.272 67.2386 31.7394 66.5249 30.7344 66.5249C29.7543 66.5249 29.1967 67.2386 29.1932 68.0909V68.4744ZM29.5128 74H30.4041L35.4041 66.7273H34.5128L29.5128 74ZM33.8168 72.2528C33.8203 71.8764 33.9801 71.4964 34.4276 71.4964C34.8963 71.4964 35.0348 71.8764 35.0313 72.2528V72.6364C35.0348 73.0128 34.8821 73.3857 34.4276 73.3857C33.973 73.3857 33.8203 73.0092 33.8168 72.6364V72.2528ZM30.1271 68.0909C30.1307 67.718 30.2834 67.3345 30.7344 67.3345C31.2031 67.3345 31.3381 67.7145 31.3345 68.0909V68.4744C31.3381 68.8509 31.1889 69.2237 30.7344 69.2237C30.2798 69.2237 30.1307 68.8509 30.1271 68.4744V68.0909Z" fill="#00A876"/>
</svg>
