<svg width="333" height="141" viewBox="0 0 333 141" fill="none" xmlns="http://www.w3.org/2000/svg">
<path d="M0 13C0 5.8203 5.8203 0 13 0H147C154.18 0 160 5.8203 160 13V127C160 134.18 154.18 140 147 140H13C5.8203 140 0 134.18 0 127V13Z" fill="#EDEDED" fill-opacity="0.31"/>
<rect x="10" y="75" width="8" height="27" rx="4" fill="#18D89F"/>
<rect x="22" y="66" width="8" height="36" rx="4" fill="#18D89F"/>
<rect x="34" y="77" width="8" height="25" rx="4" fill="#18D89F"/>
<rect x="46" y="72" width="8" height="30" rx="4" fill="#18D89F"/>
<rect x="58" y="66" width="8" height="36" rx="4" fill="#18D89F"/>
<rect x="70" y="70" width="8" height="33" rx="4" fill="#18D89F"/>
<rect x="82" y="67" width="8" height="36" rx="4" fill="#18D89F"/>
<rect x="94" y="62" width="8" height="41" rx="4" fill="#18D89F"/>
<rect x="106" y="67" width="8" height="36" rx="4" fill="#18D89F"/>
<rect x="118" y="57" width="8" height="46" rx="4" fill="#18D89F"/>
<rect x="130" y="62" width="8" height="41" rx="4" fill="#18D89F"/>
<rect x="142" y="53" width="8" height="50" rx="4" fill="#18D89F"/>
<path d="M14.8846 21.1491C17.2177 21.1491 18.9169 19.8121 18.9116 17.9691C18.9169 16.6055 18.0646 15.6254 16.5359 15.407V15.3217C17.7184 15.0661 18.5121 14.1871 18.5067 12.962C18.5121 11.3001 17.0952 9.94176 14.9165 9.94176C12.7965 9.94176 11.1559 11.2042 11.1133 13.0312H13.0149C13.0469 12.1151 13.8991 11.5451 14.9059 11.5451C15.9233 11.5451 16.5998 12.163 16.5945 13.0792C16.5998 14.0327 15.8114 14.6665 14.6822 14.6665H13.718V16.19H14.6822C16.0618 16.19 16.8821 16.8825 16.8768 17.8679C16.8821 18.832 16.0458 19.4925 14.8793 19.4925C13.782 19.4925 12.935 18.9226 12.8871 18.033H10.8842C10.9375 19.8761 12.5835 21.1491 14.8846 21.1491ZM24.7378 21.2077C27.3692 21.2131 28.9406 19.1357 28.9406 15.5561C28.9406 11.9979 27.3585 9.94176 24.7378 9.94176C22.117 9.94176 20.5403 11.9925 20.535 15.5561C20.535 19.1303 22.1064 21.2077 24.7378 21.2077ZM24.7378 19.5405C23.3795 19.5405 22.5272 18.1768 22.5325 15.5561C22.5379 12.9567 23.3848 11.5877 24.7378 11.5877C26.0961 11.5877 26.943 12.9567 26.9484 15.5561C26.9484 18.1768 26.1014 19.5405 24.7378 19.5405ZM34.3834 24.0682H36.3116V19.7109H36.3915C36.6952 20.3075 37.329 21.1438 38.7353 21.1438C40.6635 21.1438 42.1071 19.6151 42.1071 16.9197C42.1071 14.1925 40.6209 12.7116 38.73 12.7116C37.2864 12.7116 36.6845 13.5799 36.3915 14.1712H36.2797V12.8182H34.3834V24.0682ZM36.2743 16.9091C36.2743 15.3217 36.9562 14.2937 38.1973 14.2937C39.481 14.2937 40.1415 15.3857 40.1415 16.9091C40.1415 18.4432 39.4704 19.5618 38.1973 19.5618C36.9668 19.5618 36.2743 18.4964 36.2743 16.9091ZM47.2928 21.1598C49.6898 21.1598 51.2132 19.4712 51.2132 16.9411C51.2132 14.4055 49.6898 12.7116 47.2928 12.7116C44.8957 12.7116 43.3723 14.4055 43.3723 16.9411C43.3723 19.4712 44.8957 21.1598 47.2928 21.1598ZM47.3034 19.6151C45.9771 19.6151 45.3272 18.4325 45.3272 16.9357C45.3272 15.4389 45.9771 14.2404 47.3034 14.2404C48.6084 14.2404 49.2583 15.4389 49.2583 16.9357C49.2583 18.4325 48.6084 19.6151 47.3034 19.6151ZM59.282 14.9808C59.0156 13.5959 57.9077 12.7116 55.9901 12.7116C54.0192 12.7116 52.6768 13.6811 52.6822 15.1939C52.6768 16.3871 53.4119 17.1754 54.9833 17.5004L56.3789 17.7933C57.13 17.9585 57.4815 18.2621 57.4815 18.7255C57.4815 19.2848 56.8743 19.7056 55.9581 19.7056C55.0739 19.7056 54.4986 19.3221 54.3334 18.587L52.4531 18.7681C52.6928 20.2702 53.9553 21.1598 55.9634 21.1598C58.0089 21.1598 59.4524 20.0998 59.4577 18.5497C59.4524 17.3832 58.7013 16.6694 57.1566 16.3338L55.761 16.0355C54.93 15.8491 54.5998 15.5614 54.6051 15.0874C54.5998 14.5334 55.2124 14.1499 56.0167 14.1499C56.9062 14.1499 57.375 14.6346 57.5241 15.1726L59.282 14.9808ZM65.0988 12.8182H63.4848V10.858H61.5566V12.8182H60.3954V14.3097H61.5566V18.8587C61.5459 20.3981 62.6645 21.1545 64.1134 21.1119C64.6621 21.0959 65.0402 20.9893 65.248 20.9201L64.9231 19.4126C64.8165 19.4393 64.5981 19.4872 64.3584 19.4872C63.8737 19.4872 63.4848 19.3168 63.4848 18.5391V14.3097H65.0988V12.8182ZM73.0264 14.9808C72.7601 13.5959 71.6521 12.7116 69.7345 12.7116C67.7636 12.7116 66.4213 13.6811 66.4266 15.1939C66.4213 16.3871 67.1564 17.1754 68.7278 17.5004L70.1234 17.7933C70.8744 17.9585 71.226 18.2621 71.226 18.7255C71.226 19.2848 70.6188 19.7056 69.7026 19.7056C68.8183 19.7056 68.2431 19.3221 68.0779 18.587L66.1976 18.7681C66.4373 20.2702 67.6997 21.1598 69.7079 21.1598C71.7534 21.1598 73.1969 20.0998 73.2022 18.5497C73.1969 17.3832 72.4458 16.6694 70.9011 16.3338L69.5055 16.0355C68.6745 15.8491 68.3443 15.5614 68.3496 15.0874C68.3443 14.5334 68.9568 14.1499 69.7612 14.1499C70.6507 14.1499 71.1195 14.6346 71.2686 15.1726L73.0264 14.9808ZM10.8608 32.2727V41H12.3778V34.9915H12.4588L14.8707 40.9744H16.0043L18.4162 35.0043H18.4972V41H20.0142V32.2727H18.0795L15.4886 38.5966H15.3864L12.7955 32.2727H10.8608ZM24.3151 41.1278C26.2327 41.1278 27.4515 39.777 27.4515 37.7528C27.4515 35.7244 26.2327 34.3693 24.3151 34.3693C22.3975 34.3693 21.1788 35.7244 21.1788 37.7528C21.1788 39.777 22.3975 41.1278 24.3151 41.1278ZM24.3237 39.892C23.2626 39.892 22.7427 38.946 22.7427 37.7486C22.7427 36.5511 23.2626 35.5923 24.3237 35.5923C25.3677 35.5923 25.8876 36.5511 25.8876 37.7486C25.8876 38.946 25.3677 39.892 24.3237 39.892ZM30.0958 37.1648C30.0958 36.2188 30.6668 35.6733 31.4808 35.6733C32.2776 35.6733 32.7549 36.1974 32.7549 37.071V41H34.2975V36.8324C34.3018 35.2642 33.4069 34.3693 32.056 34.3693C31.0759 34.3693 30.4026 34.8381 30.1043 35.5668H30.0276V34.4545H28.5532V41H30.0958V37.1648ZM38.9266 34.4545H37.6354V32.8864H36.0928V34.4545H35.1638V35.6477H36.0928V39.2869C36.0842 40.5185 36.9791 41.1236 38.1382 41.0895C38.5771 41.0767 38.8797 40.9915 39.0459 40.9361L38.7859 39.7301C38.7007 39.7514 38.526 39.7898 38.3342 39.7898C37.9464 39.7898 37.6354 39.6534 37.6354 39.0312V35.6477H38.9266V34.4545ZM41.6923 37.1648C41.6923 36.2188 42.2804 35.6733 43.1071 35.6733C43.9168 35.6733 44.394 36.1889 44.394 37.071V41H45.9366V36.8324C45.9366 35.2514 45.0418 34.3693 43.6824 34.3693C42.6767 34.3693 42.0375 34.8253 41.7349 35.5668H41.6582V32.2727H40.1497V41H41.6923V37.1648ZM48.8441 32.2727H47.3015V41H48.8441V32.2727ZM51.1816 43.4545C52.3833 43.4545 53.0779 42.8366 53.4486 41.7926L56.0779 34.4631L54.4288 34.4545L52.916 39.3977H52.8478L51.3393 34.4545H49.7029L52.0765 41.1364L51.9444 41.4901C51.6589 42.2358 51.2072 42.2869 50.5339 42.0909L50.1759 43.2926C50.3847 43.3778 50.7597 43.4545 51.1816 43.4545ZM60.8989 41L61.619 38.848H64.9003L65.6247 41H67.3122L64.2355 32.2727H62.2838L59.2114 41H60.8989ZM62.0452 37.5781L63.2256 34.0625H63.2937L64.4741 37.5781H62.0452ZM73.2122 34.4545H71.5716L70.0631 39.3168H69.9949L68.4906 34.4545H66.8457L69.1767 41H70.8812L73.2122 34.4545ZM76.7472 41.1278C78.2727 41.1278 79.321 40.3821 79.5937 39.2443L78.1534 39.0824C77.9446 39.6364 77.4332 39.9261 76.7685 39.9261C75.7713 39.9261 75.1108 39.2699 75.098 38.1491H79.6577V37.6761C79.6577 35.3793 78.277 34.3693 76.6662 34.3693C74.7912 34.3693 73.5682 35.7457 73.5682 37.7656C73.5682 39.8196 74.7741 41.1278 76.7472 41.1278ZM75.1023 37.1094C75.1491 36.2741 75.767 35.571 76.6875 35.571C77.5739 35.571 78.1704 36.2188 78.179 37.1094H75.1023ZM80.7551 41H82.2977V37.152C82.2977 36.321 82.9241 35.733 83.7722 35.733C84.0321 35.733 84.356 35.7798 84.4881 35.8224V34.4034C84.3474 34.3778 84.1045 34.3608 83.9341 34.3608C83.1841 34.3608 82.5577 34.7869 82.319 35.5455H82.2508V34.4545H80.7551V41ZM87.0599 41.1321C88.0869 41.1321 88.7006 40.6506 88.9818 40.1009H89.033V41H90.5159V36.6193C90.5159 34.8892 89.1054 34.3693 87.8568 34.3693C86.4804 34.3693 85.4236 34.983 85.0827 36.1761L86.523 36.3807C86.6764 35.9332 87.1111 35.5497 87.8653 35.5497C88.5812 35.5497 88.9733 35.9162 88.9733 36.5597V36.5852C88.9733 37.0284 88.5088 37.0497 87.354 37.1733C86.0841 37.3097 84.8696 37.6889 84.8696 39.1634C84.8696 40.4503 85.8114 41.1321 87.0599 41.1321ZM87.4605 39.9986C86.817 39.9986 86.3568 39.7045 86.3568 39.1378C86.3568 38.5455 86.8724 38.2983 87.5628 38.2003C87.9676 38.1449 88.7773 38.0426 88.9776 37.8807V38.652C88.9776 39.3807 88.3895 39.9986 87.4605 39.9986ZM94.706 43.5909C96.4745 43.5909 97.7785 42.7812 97.7785 41.1065V34.4545H96.2572V35.5369H96.1719C95.9376 35.0639 95.4475 34.3693 94.2927 34.3693C92.7799 34.3693 91.591 35.554 91.591 37.706C91.591 39.8409 92.7799 40.9062 94.2884 40.9062C95.4092 40.9062 95.9333 40.3054 96.1719 39.8239H96.2486V41.0639C96.2486 42.027 95.6094 42.4233 94.7316 42.4233C93.8026 42.4233 93.3935 41.9844 93.206 41.6009L91.8168 41.9375C92.0981 42.8537 93.0398 43.5909 94.706 43.5909ZM94.7188 39.696C93.7003 39.696 93.1634 38.9034 93.1634 37.6974C93.1634 36.5085 93.6918 35.6349 94.7188 35.6349C95.7117 35.6349 96.2572 36.4574 96.2572 37.6974C96.2572 38.946 95.7032 39.696 94.7188 39.696ZM102.05 41.1278C103.575 41.1278 104.623 40.3821 104.896 39.2443L103.456 39.0824C103.247 39.6364 102.736 39.9261 102.071 39.9261C101.074 39.9261 100.413 39.2699 100.4 38.1491H104.96V37.6761C104.96 35.3793 103.579 34.3693 101.969 34.3693C100.094 34.3693 98.8706 35.7457 98.8706 37.7656C98.8706 39.8196 100.077 41.1278 102.05 41.1278ZM100.405 37.1094C100.452 36.2741 101.069 35.571 101.99 35.571C102.876 35.571 103.473 36.2188 103.481 37.1094H100.405Z" fill="#272833"/>
<path d="M13.304 116.273V122.409C13.2997 123.33 12.8736 123.82 12.1151 123.82C11.4077 123.82 10.9347 123.389 10.9219 122.682H9.34943C9.34943 124.293 10.5256 125.119 12.0554 125.119C13.7386 125.119 14.8679 124.097 14.8722 122.409V116.273H13.304ZM18.1951 125.132C19.2221 125.132 19.8357 124.651 20.117 124.101H20.1681V125H21.6511V120.619C21.6511 118.889 20.2406 118.369 18.992 118.369C17.6156 118.369 16.5587 118.983 16.2178 120.176L17.6582 120.381C17.8116 119.933 18.2462 119.55 19.0005 119.55C19.7164 119.55 20.1085 119.916 20.1085 120.56V120.585C20.1085 121.028 19.644 121.05 18.4891 121.173C17.2192 121.31 16.0048 121.689 16.0048 123.163C16.0048 124.45 16.9465 125.132 18.1951 125.132ZM18.5957 123.999C17.9522 123.999 17.492 123.705 17.492 123.138C17.492 122.545 18.0076 122.298 18.6979 122.2C19.1028 122.145 19.9124 122.043 20.1127 121.881V122.652C20.1127 123.381 19.5246 123.999 18.5957 123.999ZM24.5372 121.165C24.5372 120.219 25.1082 119.673 25.9222 119.673C26.719 119.673 27.1963 120.197 27.1963 121.071V125H28.7389V120.832C28.7432 119.264 27.8483 118.369 26.4974 118.369C25.5173 118.369 24.844 118.838 24.5457 119.567H24.469V118.455H22.9946V125H24.5372V121.165Z" fill="#9A9A9A"/>
<path d="M51.9815 126L52.7017 123.848H55.983L56.7074 126H58.3949L55.3182 117.273H53.3665L50.294 126H51.9815ZM53.1278 122.578L54.3082 119.062H54.3764L55.5568 122.578H53.1278ZM59.2686 128.455H60.8112V124.969H60.8751C61.118 125.446 61.6251 126.115 62.7501 126.115C64.2928 126.115 65.4476 124.892 65.4476 122.736C65.4476 120.554 64.2587 119.369 62.7459 119.369C61.5911 119.369 61.1095 120.064 60.8751 120.537H60.7857V119.455H59.2686V128.455ZM60.7814 122.727C60.7814 121.457 61.3268 120.635 62.3197 120.635C63.3467 120.635 63.8751 121.509 63.8751 122.727C63.8751 123.955 63.3382 124.849 62.3197 124.849C61.3354 124.849 60.7814 123.997 60.7814 122.727ZM66.561 126H68.1036V122.152C68.1036 121.321 68.73 120.733 69.5781 120.733C69.838 120.733 70.1619 120.78 70.294 120.822V119.403C70.1533 119.378 69.9104 119.361 69.74 119.361C68.99 119.361 68.3636 119.787 68.1249 120.545H68.0567V119.455H66.561V126Z" fill="#9A9A9A"/>
<path d="M97.304 117.273V123.409C97.2997 124.33 96.8736 124.82 96.1151 124.82C95.4077 124.82 94.9347 124.389 94.9219 123.682H93.3494C93.3494 125.293 94.5256 126.119 96.0554 126.119C97.7386 126.119 98.8679 125.097 98.8722 123.409V117.273H97.304ZM104.483 123.247C104.483 124.244 103.772 124.739 103.09 124.739C102.349 124.739 101.854 124.214 101.854 123.384V119.455H100.312V123.622C100.312 125.195 101.206 126.085 102.493 126.085C103.474 126.085 104.164 125.57 104.462 124.837H104.53V126H106.026V119.455H104.483V123.247ZM108.947 117.273H107.405V126H108.947V117.273Z" fill="#9A9A9A"/>
<path d="M138.659 121.636C138.659 118.815 136.938 117.153 134.649 117.153C132.357 117.153 130.639 118.815 130.639 121.636C130.639 124.453 132.357 126.119 134.649 126.119C136.938 126.119 138.659 124.457 138.659 121.636ZM137.07 121.636C137.07 123.622 136.072 124.7 134.649 124.7C133.23 124.7 132.229 123.622 132.229 121.636C132.229 119.651 133.23 118.572 134.649 118.572C136.072 118.572 137.07 119.651 137.07 121.636ZM142.733 126.128C144.378 126.128 145.426 125.152 145.537 123.763H144.063C143.931 124.466 143.423 124.871 142.746 124.871C141.783 124.871 141.161 124.065 141.161 122.727C141.161 121.406 141.796 120.614 142.746 120.614C143.487 120.614 143.943 121.091 144.063 121.722H145.537C145.431 120.303 144.323 119.369 142.725 119.369C140.807 119.369 139.597 120.754 139.597 122.753C139.597 124.734 140.777 126.128 142.733 126.128ZM149.865 119.455H148.573V117.886H147.031V119.455H146.102V120.648H147.031V124.287C147.022 125.518 147.917 126.124 149.076 126.089C149.515 126.077 149.818 125.991 149.984 125.936L149.724 124.73C149.639 124.751 149.464 124.79 149.272 124.79C148.885 124.79 148.573 124.653 148.573 124.031V120.648H149.865V119.455Z" fill="#9A9A9A"/>
<path d="M173 88C173 80.8203 178.82 75 186 75H320C327.18 75 333 80.8203 333 88V128C333 135.18 327.18 141 320 141H186C178.82 141 173 135.18 173 128V88Z" fill="#EDEDED" fill-opacity="0.31"/>
<path d="M192.32 106.364H193.449L193.455 105.144C195.74 104.979 197.05 103.722 197.055 101.937C197.05 100.046 195.489 99.1832 193.849 98.7944L193.497 98.7038L193.518 95.6623C194.371 95.8114 194.919 96.3228 195.005 97.0898H196.906C196.874 95.396 195.543 94.1602 193.529 93.9684L193.534 92.7273H192.405L192.4 93.9684C190.402 94.1708 188.964 95.396 188.969 97.1591C188.969 98.7251 190.083 99.6254 191.878 100.089L192.357 100.211L192.336 103.434C191.382 103.285 190.695 102.741 190.626 101.777H188.682C188.756 103.775 190.131 104.963 192.325 105.144L192.32 106.364ZM193.465 103.434L193.487 100.51C194.456 100.792 195.074 101.165 195.079 101.921C195.074 102.71 194.44 103.274 193.465 103.434ZM192.368 98.4162C191.633 98.1818 190.962 97.793 190.972 97.0366C190.978 96.3494 191.494 95.8168 192.389 95.6623L192.368 98.4162ZM202.591 105.149C204.924 105.149 206.624 103.812 206.618 101.969C206.624 100.605 205.771 99.6254 204.243 99.407V99.3217C205.425 99.0661 206.219 98.1871 206.213 96.962C206.219 95.3001 204.802 93.9418 202.623 93.9418C200.503 93.9418 198.863 95.2042 198.82 97.0312H200.722C200.754 96.1151 201.606 95.5451 202.613 95.5451C203.63 95.5451 204.306 96.163 204.301 97.0792C204.306 98.0327 203.518 98.6665 202.389 98.6665H201.425V100.19H202.389C203.769 100.19 204.589 100.882 204.583 101.868C204.589 102.832 203.753 103.493 202.586 103.493C201.489 103.493 200.642 102.923 200.594 102.033H198.591C198.644 103.876 200.29 105.149 202.591 105.149ZM212.205 105.149C214.511 105.149 216.12 103.583 216.12 101.415C216.12 99.3164 214.66 97.8036 212.679 97.8036C211.795 97.8036 211.012 98.1552 210.607 98.6346H210.543L210.857 95.7422H215.55V94.0909H209.222L208.652 99.7159L210.436 100.009C210.804 99.604 211.496 99.3324 212.152 99.3377C213.35 99.343 214.213 100.227 214.208 101.463C214.213 102.683 213.371 103.551 212.205 103.551C211.219 103.551 210.426 102.928 210.356 102.033H208.439C208.492 103.844 210.074 105.149 212.205 105.149ZM219.789 103.509H218.084L218.047 104.105C217.956 105.549 217.578 107.019 217.424 107.663H218.723C218.979 106.992 219.57 105.437 219.72 104.094L219.789 103.509ZM225.463 105.149C227.818 105.165 229.4 103.546 229.394 101.388C229.4 99.3271 227.929 97.8356 226.017 97.8356C224.845 97.8356 223.812 98.4055 223.29 99.343H223.215C223.221 97.0472 224.062 95.6516 225.575 95.6516C226.513 95.6516 227.146 96.195 227.349 97.0312H229.293C229.059 95.2681 227.637 93.9418 225.575 93.9418C222.954 93.9418 221.298 96.1257 221.298 99.8544C221.292 103.855 223.37 105.138 225.463 105.149ZM225.453 103.551C224.286 103.551 223.434 102.587 223.428 101.447C223.439 100.302 224.323 99.343 225.479 99.343C226.635 99.343 227.482 100.259 227.477 101.431C227.482 102.624 226.608 103.551 225.453 103.551ZM231.56 105H233.611L238.245 95.7795V94.0909H230.814V95.7422H236.199V95.8168L231.56 105ZM243.588 105.149C245.947 105.149 247.636 103.849 247.641 102.076C247.636 100.712 246.629 99.5721 245.361 99.359V99.2844C246.464 99.0394 247.231 98.0487 247.236 96.8661C247.231 95.1882 245.686 93.9418 243.588 93.9418C241.473 93.9418 239.928 95.1829 239.933 96.8661C239.928 98.0487 240.685 99.0394 241.808 99.2844V99.359C240.519 99.5721 239.523 100.712 239.529 102.076C239.523 103.849 241.207 105.149 243.588 105.149ZM243.588 103.626C242.352 103.626 241.553 102.944 241.563 101.937C241.553 100.893 242.41 100.153 243.588 100.153C244.749 100.153 245.601 100.898 245.612 101.937C245.601 102.944 244.807 103.626 243.588 103.626ZM243.588 98.6559C242.575 98.6559 241.851 98.0007 241.862 97.0526C241.851 96.1151 242.554 95.4865 243.588 95.4865C244.605 95.4865 245.303 96.1151 245.313 97.0526C245.303 98.006 244.584 98.6559 243.588 98.6559ZM250.245 105.117C250.873 105.117 251.411 104.595 251.417 103.945C251.411 103.306 250.873 102.784 250.245 102.784C249.595 102.784 249.068 103.306 249.073 103.945C249.068 104.595 249.595 105.117 250.245 105.117ZM257.012 105.149C259.319 105.149 260.928 103.583 260.928 101.415C260.928 99.3164 259.468 97.8036 257.487 97.8036C256.602 97.8036 255.819 98.1552 255.414 98.6346H255.351L255.665 95.7422H260.358V94.0909H254.029L253.46 99.7159L255.244 100.009C255.612 99.604 256.304 99.3324 256.959 99.3377C258.158 99.343 259.021 100.227 259.015 101.463C259.021 102.683 258.179 103.551 257.012 103.551C256.027 103.551 255.233 102.928 255.164 102.033H253.246C253.3 103.844 254.882 105.149 257.012 105.149ZM266.71 105.208C269.341 105.213 270.913 103.136 270.913 99.5561C270.913 95.9979 269.331 93.9418 266.71 93.9418C264.089 93.9418 262.512 95.9925 262.507 99.5561C262.507 103.13 264.078 105.208 266.71 105.208ZM266.71 103.54C265.352 103.54 264.499 102.177 264.505 99.5561C264.51 96.9567 265.357 95.5877 266.71 95.5877C268.068 95.5877 268.915 96.9567 268.92 99.5561C268.92 102.177 268.073 103.54 266.71 103.54ZM188.264 116.273L191.439 121.744V125H193.016V121.744L196.19 116.273H194.405L192.27 120.134H192.185L190.05 116.273H188.264ZM198.713 125.128C200.239 125.128 201.287 124.382 201.56 123.244L200.119 123.082C199.911 123.636 199.399 123.926 198.735 123.926C197.737 123.926 197.077 123.27 197.064 122.149H201.624V121.676C201.624 119.379 200.243 118.369 198.632 118.369C196.757 118.369 195.534 119.746 195.534 121.766C195.534 123.82 196.74 125.128 198.713 125.128ZM197.068 121.109C197.115 120.274 197.733 119.571 198.654 119.571C199.54 119.571 200.137 120.219 200.145 121.109H197.068ZM204.605 125.132C205.632 125.132 206.245 124.651 206.527 124.101H206.578V125H208.061V120.619C208.061 118.889 206.65 118.369 205.402 118.369C204.025 118.369 202.968 118.983 202.627 120.176L204.068 120.381C204.221 119.933 204.656 119.55 205.41 119.55C206.126 119.55 206.518 119.916 206.518 120.56V120.585C206.518 121.028 206.054 121.05 204.899 121.173C203.629 121.31 202.414 121.689 202.414 123.163C202.414 124.45 203.356 125.132 204.605 125.132ZM205.005 123.999C204.362 123.999 203.902 123.705 203.902 123.138C203.902 122.545 204.417 122.298 205.108 122.2C205.512 122.145 206.322 122.043 206.522 121.881V122.652C206.522 123.381 205.934 123.999 205.005 123.999ZM209.404 125H210.947V121.152C210.947 120.321 211.573 119.733 212.421 119.733C212.681 119.733 213.005 119.78 213.137 119.822V118.403C212.997 118.378 212.754 118.361 212.583 118.361C211.833 118.361 211.207 118.787 210.968 119.545H210.9V118.455H209.404V125ZM219.992 118.455H218.701V116.886H217.158V118.455H216.229V119.648H217.158V123.287C217.149 124.518 218.044 125.124 219.203 125.089C219.642 125.077 219.945 124.991 220.111 124.936L219.851 123.73C219.766 123.751 219.591 123.79 219.399 123.79C219.012 123.79 218.701 123.653 218.701 123.031V119.648H219.992V118.455ZM223.859 125.128C225.777 125.128 226.996 123.777 226.996 121.753C226.996 119.724 225.777 118.369 223.859 118.369C221.942 118.369 220.723 119.724 220.723 121.753C220.723 123.777 221.942 125.128 223.859 125.128ZM223.868 123.892C222.807 123.892 222.287 122.946 222.287 121.749C222.287 120.551 222.807 119.592 223.868 119.592C224.912 119.592 225.432 120.551 225.432 121.749C225.432 122.946 224.912 123.892 223.868 123.892ZM233.295 125.115C234.42 125.115 234.927 124.446 235.17 123.969H235.264V125H236.781V116.273H235.234V119.537H235.17C234.936 119.064 234.454 118.369 233.299 118.369C231.787 118.369 230.598 119.554 230.598 121.736C230.598 123.892 231.753 125.115 233.295 125.115ZM233.726 123.849C232.707 123.849 232.17 122.955 232.17 121.727C232.17 120.509 232.699 119.635 233.726 119.635C234.718 119.635 235.264 120.457 235.264 121.727C235.264 122.997 234.71 123.849 233.726 123.849ZM240.101 125.132C241.128 125.132 241.741 124.651 242.023 124.101H242.074V125H243.557V120.619C243.557 118.889 242.146 118.369 240.898 118.369C239.521 118.369 238.464 118.983 238.123 120.176L239.564 120.381C239.717 119.933 240.152 119.55 240.906 119.55C241.622 119.55 242.014 119.916 242.014 120.56V120.585C242.014 121.028 241.55 121.05 240.395 121.173C239.125 121.31 237.91 121.689 237.91 123.163C237.91 124.45 238.852 125.132 240.101 125.132ZM240.501 123.999C239.858 123.999 239.398 123.705 239.398 123.138C239.398 122.545 239.913 122.298 240.604 122.2C241.008 122.145 241.818 122.043 242.018 121.881V122.652C242.018 123.381 241.43 123.999 240.501 123.999ZM248.169 118.455H246.877V116.886H245.335V118.455H244.406V119.648H245.335V123.287C245.326 124.518 246.221 125.124 247.38 125.089C247.819 125.077 248.122 124.991 248.288 124.936L248.028 123.73C247.943 123.751 247.768 123.79 247.576 123.79C247.189 123.79 246.877 123.653 246.877 123.031V119.648H248.169V118.455ZM252.079 125.128C253.604 125.128 254.652 124.382 254.925 123.244L253.485 123.082C253.276 123.636 252.765 123.926 252.1 123.926C251.103 123.926 250.442 123.27 250.429 122.149H254.989V121.676C254.989 119.379 253.608 118.369 251.998 118.369C250.123 118.369 248.9 119.746 248.9 121.766C248.9 123.82 250.106 125.128 252.079 125.128ZM250.434 121.109C250.481 120.274 251.099 119.571 252.019 119.571C252.905 119.571 253.502 120.219 253.51 121.109H250.434ZM258.856 125H260.398V121.152C260.398 120.321 261.025 119.733 261.873 119.733C262.133 119.733 262.456 119.78 262.588 119.822V118.403C262.448 118.378 262.205 118.361 262.035 118.361C261.285 118.361 260.658 118.787 260.419 119.545H260.351V118.455H258.856V125ZM266.034 125.128C267.56 125.128 268.608 124.382 268.881 123.244L267.44 123.082C267.231 123.636 266.72 123.926 266.055 123.926C265.058 123.926 264.398 123.27 264.385 122.149H268.944V121.676C268.944 119.379 267.564 118.369 265.953 118.369C264.078 118.369 262.855 119.746 262.855 121.766C262.855 123.82 264.061 125.128 266.034 125.128ZM264.389 121.109C264.436 120.274 265.054 119.571 265.974 119.571C266.861 119.571 267.457 120.219 267.466 121.109H264.389ZM275.701 118.455H274.06L272.552 123.317H272.484L270.979 118.455H269.335L271.665 125H273.37L275.701 118.455ZM279.236 125.128C280.761 125.128 281.81 124.382 282.083 123.244L280.642 123.082C280.433 123.636 279.922 123.926 279.257 123.926C278.26 123.926 277.6 123.27 277.587 122.149H282.146V121.676C282.146 119.379 280.766 118.369 279.155 118.369C277.28 118.369 276.057 119.746 276.057 121.766C276.057 123.82 277.263 125.128 279.236 125.128ZM277.591 121.109C277.638 120.274 278.256 119.571 279.176 119.571C280.063 119.571 280.659 120.219 280.668 121.109H277.591ZM284.786 121.165C284.786 120.219 285.358 119.673 286.171 119.673C286.968 119.673 287.446 120.197 287.446 121.071V125H288.988V120.832C288.992 119.264 288.098 118.369 286.747 118.369C285.767 118.369 285.093 118.838 284.795 119.567H284.718V118.455H283.244V125H284.786V121.165ZM294.521 122.247C294.521 123.244 293.809 123.739 293.127 123.739C292.386 123.739 291.891 123.214 291.891 122.384V118.455H290.349V122.622C290.349 124.195 291.244 125.085 292.531 125.085C293.511 125.085 294.201 124.57 294.499 123.837H294.568V125H296.063V118.455H294.521V122.247ZM300.34 125.128C301.865 125.128 302.914 124.382 303.186 123.244L301.746 123.082C301.537 123.636 301.026 123.926 300.361 123.926C299.364 123.926 298.703 123.27 298.691 122.149H303.25V121.676C303.25 119.379 301.87 118.369 300.259 118.369C298.384 118.369 297.161 119.746 297.161 121.766C297.161 123.82 298.367 125.128 300.34 125.128ZM298.695 121.109C298.742 120.274 299.36 119.571 300.28 119.571C301.166 119.571 301.763 120.219 301.772 121.109H298.695Z" fill="#272833"/>
<path d="M173 13C173 5.8203 178.82 0 186 0H320C327.18 0 333 5.8203 333 13V53C333 60.1797 327.18 66 320 66H186C178.82 66 173 60.1797 173 53V13Z" fill="#EDEDED" fill-opacity="0.31"/>
<path d="M188.597 38.7475H191.968V48H193.929V38.7475H197.3V37.0909H188.597V38.7475ZM201.241 48.1598C203.638 48.1598 205.161 46.4712 205.161 43.9411C205.161 41.4055 203.638 39.7116 201.241 39.7116C198.844 39.7116 197.321 41.4055 197.321 43.9411C197.321 46.4712 198.844 48.1598 201.241 48.1598ZM201.252 46.6151C199.925 46.6151 199.275 45.4325 199.275 43.9357C199.275 42.4389 199.925 41.2404 201.252 41.2404C202.557 41.2404 203.207 42.4389 203.207 43.9357C203.207 45.4325 202.557 46.6151 201.252 46.6151ZM210.849 39.8182H209.235V37.858H207.307V39.8182H206.146V41.3097H207.307V45.8587C207.296 47.3981 208.415 48.1545 209.864 48.1119C210.412 48.0959 210.791 47.9893 210.998 47.9201L210.673 46.4126C210.567 46.4393 210.348 46.4872 210.109 46.4872C209.624 46.4872 209.235 46.3168 209.235 45.5391V41.3097H210.849V39.8182ZM214.782 48.1651C216.065 48.1651 216.832 47.5632 217.184 46.8761H217.248V48H219.102V42.5241C219.102 40.3615 217.339 39.7116 215.778 39.7116C214.057 39.7116 212.736 40.4787 212.31 41.9702L214.111 42.2259C214.302 41.6665 214.846 41.1871 215.788 41.1871C216.683 41.1871 217.173 41.6452 217.173 42.4496V42.4815C217.173 43.0355 216.593 43.0621 215.149 43.2166C213.562 43.3871 212.044 43.8612 212.044 45.7042C212.044 47.3129 213.221 48.1651 214.782 48.1651ZM215.282 46.7482C214.478 46.7482 213.903 46.3807 213.903 45.6722C213.903 44.9318 214.547 44.6229 215.41 44.5004C215.916 44.4311 216.928 44.3033 217.179 44.1009V45.065C217.179 45.9759 216.444 46.7482 215.282 46.7482ZM222.934 37.0909H221.006V48H222.934V37.0909ZM228.569 48H230.497V39.8182H228.569V48ZM229.538 38.657C230.151 38.657 230.652 38.1882 230.652 37.6129C230.652 37.0323 230.151 36.5636 229.538 36.5636C228.92 36.5636 228.42 37.0323 228.42 37.6129C228.42 38.1882 228.92 38.657 229.538 38.657ZM234.374 43.206C234.374 42.0234 235.088 41.3416 236.105 41.3416C237.101 41.3416 237.698 41.9968 237.698 43.0888V48H239.626V42.7905C239.631 40.8303 238.513 39.7116 236.824 39.7116C235.599 39.7116 234.757 40.2976 234.384 41.2085H234.289V39.8182H232.446V48H234.374V43.206ZM245.323 48H247.219V46.7109H247.331C247.635 47.3075 248.269 48.1438 249.675 48.1438C251.603 48.1438 253.047 46.6151 253.047 43.9197C253.047 41.1925 251.561 39.7116 249.67 39.7116C248.226 39.7116 247.624 40.5799 247.331 41.1712H247.251V37.0909H245.323V48ZM247.214 43.9091C247.214 42.3217 247.896 41.2937 249.137 41.2937C250.421 41.2937 251.081 42.3857 251.081 43.9091C251.081 45.4432 250.41 46.5618 249.137 46.5618C247.907 46.5618 247.214 45.4964 247.214 43.9091ZM257.006 48.1651C258.29 48.1651 259.057 47.5632 259.408 46.8761H259.472V48H261.326V42.5241C261.326 40.3615 259.563 39.7116 258.002 39.7116C256.282 39.7116 254.961 40.4787 254.534 41.9702L256.335 42.2259C256.527 41.6665 257.07 41.1871 258.013 41.1871C258.908 41.1871 259.398 41.6452 259.398 42.4496V42.4815C259.398 43.0355 258.817 43.0621 257.374 43.2166C255.786 43.3871 254.268 43.8612 254.268 45.7042C254.268 47.3129 255.445 48.1651 257.006 48.1651ZM257.507 46.7482C256.702 46.7482 256.127 46.3807 256.127 45.6722C256.127 44.9318 256.772 44.6229 257.635 44.5004C258.141 44.4311 259.153 44.3033 259.403 44.1009V45.065C259.403 45.9759 258.668 46.7482 257.507 46.7482ZM265.159 43.206C265.159 42.0234 265.872 41.3416 266.89 41.3416C267.886 41.3416 268.483 41.9968 268.483 43.0888V48H270.411V42.7905C270.416 40.8303 269.298 39.7116 267.609 39.7116C266.384 39.7116 265.542 40.2976 265.169 41.2085H265.073V39.8182H263.23V48H265.159V43.206ZM272.337 48H274.265V45.2514L274.968 44.5004L277.471 48H279.778L276.422 43.3498L279.592 39.8182H277.338L274.398 43.1048H274.265V37.0909H272.337V48Z" fill="#272833"/>
<path d="M191.746 29.8182H193.422L193.436 28.1776C196.511 27.9432 198.294 26.3097 198.301 23.8452C198.294 21.4233 196.469 20.1378 193.94 19.5696L193.521 19.4702L193.55 15.919C194.494 16.1392 195.07 16.7429 195.155 17.6378H198.102C198.067 15.2869 196.312 13.6037 193.578 13.3054L193.592 11.6364H191.916L191.902 13.2912C189.125 13.5611 187.165 15.2372 187.179 17.6591C187.172 19.804 188.685 21.0327 191.142 21.6222L191.824 21.7926L191.788 25.5497C190.631 25.3295 189.849 24.6193 189.771 23.4332H186.795C186.866 26.3026 188.749 27.9077 191.76 28.1705L191.746 29.8182ZM193.464 25.5497L193.493 22.233C194.594 22.581 195.19 23.0284 195.197 23.8381C195.19 24.6974 194.537 25.3366 193.464 25.5497ZM191.845 19.0369C190.957 18.7315 190.318 18.2699 190.332 17.4531C190.332 16.6932 190.872 16.1037 191.874 15.8977L191.845 19.0369ZM206.567 13.4545H203.676L200.075 15.7344V18.4616L203.406 16.3736H203.491V28H206.567V13.4545ZM215.29 28.1989C218.529 28.1989 220.73 26.0895 220.723 23.1491C220.73 20.3651 218.784 18.3622 216.164 18.3622C214.885 18.3622 213.784 18.8949 213.273 19.6122H213.188L213.564 15.9688H219.921V13.4545H211.029L210.34 21.125L213.074 21.6151C213.522 21.0114 214.388 20.6349 215.247 20.6349C216.711 20.642 217.762 21.7003 217.762 23.2273C217.762 24.7401 216.732 25.7841 215.29 25.7841C214.069 25.7841 213.081 25.017 213.01 23.8878H210.027C210.084 26.402 212.279 28.1989 215.29 28.1989ZM225.69 26.0114H223.19L223.154 26.8068C223.069 28.7386 222.515 30.7202 222.309 31.5511H224.269C224.61 30.6918 225.42 28.6747 225.612 26.7926L225.69 26.0114ZM233.359 28.1989C236.597 28.2131 238.806 26.0895 238.799 23.1278C238.806 20.4006 236.903 18.4332 234.325 18.4332C232.727 18.4332 231.313 19.2003 230.66 20.4858H230.56C230.575 17.652 231.569 15.8906 233.465 15.8906C234.58 15.8906 235.383 16.5014 235.617 17.517H238.65C238.359 15.1236 236.37 13.2557 233.465 13.2557C229.871 13.2557 227.563 16.1676 227.549 21.054C227.542 26.3807 230.369 28.1847 233.359 28.1989ZM233.344 25.7841C231.924 25.7841 230.873 24.6406 230.873 23.2202C230.88 21.8068 231.952 20.6562 233.366 20.6562C234.786 20.6562 235.823 21.7713 235.816 23.2131C235.823 24.669 234.765 25.7841 233.344 25.7841ZM241.509 28H244.683L250.72 16.0043V13.4545H240.514V15.9688H247.538V16.0682L241.509 28ZM257.915 28.1989C261.196 28.1989 263.554 26.4446 263.561 24.0866C263.554 22.2685 262.155 20.7841 260.408 20.4929V20.3935C261.928 20.081 263.014 18.767 263.022 17.169C263.014 14.9176 260.855 13.2557 257.915 13.2557C254.968 13.2557 252.809 14.9176 252.816 17.169C252.809 18.7599 253.881 20.081 255.429 20.3935V20.4929C253.654 20.7841 252.269 22.2685 252.276 24.0866C252.269 26.4446 254.634 28.1989 257.915 28.1989ZM257.915 25.9403C256.452 25.9403 255.472 25.0739 255.472 23.8452C255.472 22.5881 256.502 21.679 257.915 21.679C259.321 21.679 260.358 22.5881 260.358 23.8452C260.358 25.081 259.371 25.9403 257.915 25.9403ZM257.915 19.4418C256.686 19.4418 255.813 18.6392 255.813 17.4886C255.813 16.3523 256.672 15.571 257.915 15.571C259.151 15.571 260.017 16.3594 260.017 17.4886C260.017 18.6392 259.137 19.4418 257.915 19.4418ZM267.052 28.1847C267.961 28.1847 268.75 27.4247 268.757 26.4801C268.75 25.5497 267.961 24.7898 267.052 24.7898C266.115 24.7898 265.341 25.5497 265.348 26.4801C265.341 27.4247 266.115 28.1847 267.052 28.1847ZM276.264 28.3196C279.922 28.3196 282.131 25.5355 282.138 20.7415C282.145 15.983 279.908 13.2557 276.264 13.2557C272.614 13.2557 270.398 15.9759 270.391 20.7415C270.376 25.5213 272.599 28.3125 276.264 28.3196ZM276.264 25.7699C274.595 25.7699 273.516 24.0938 273.523 20.7415C273.53 17.4389 274.602 15.777 276.264 15.777C277.919 15.777 278.998 17.4389 278.998 20.7415C279.006 24.0938 277.926 25.7699 276.264 25.7699ZM289.711 28.1989C292.992 28.1989 295.35 26.4446 295.357 24.0866C295.35 22.2685 293.951 20.7841 292.204 20.4929V20.3935C293.723 20.081 294.81 18.767 294.817 17.169C294.81 14.9176 292.651 13.2557 289.711 13.2557C286.763 13.2557 284.604 14.9176 284.611 17.169C284.604 18.7599 285.677 20.081 287.225 20.3935V20.4929C285.449 20.7841 284.064 22.2685 284.071 24.0866C284.064 26.4446 286.429 28.1989 289.711 28.1989ZM289.711 25.9403C288.248 25.9403 287.267 25.0739 287.267 23.8452C287.267 22.5881 288.297 21.679 289.711 21.679C291.117 21.679 292.154 22.5881 292.154 23.8452C292.154 25.081 291.167 25.9403 289.711 25.9403ZM289.711 19.4418C288.482 19.4418 287.608 18.6392 287.608 17.4886C287.608 16.3523 288.468 15.571 289.711 15.571C290.946 15.571 291.813 16.3594 291.813 17.4886C291.813 18.6392 290.932 19.4418 289.711 19.4418Z" fill="#272833"/>
</svg>
